<?xml version="1.0" encoding="iso-8859-1"?>
<!-- Generator: Adobe Illustrator 19.0.0, SVG Export Plug-In . SVG Version: 6.00 Build 0)  -->
<svg version="1.1" id="Layer_1" xmlns="http://www.w3.org/2000/svg" xmlns:xlink="http://www.w3.org/1999/xlink" x="0px" y="0px"
	 viewBox="0 0 512 512" style="enable-background:new 0 0 512 512;" xml:space="preserve">
<path style="fill:#F2484B;" d="M222.609,0c-30.736,0-55.652,24.917-55.652,55.652v11.13l111.304,22.261L256,0H222.609z"/>
<path style="fill:#BD1515;" d="M345.043,55.652C345.043,24.917,320.127,0,289.391,0H256v89.043l89.043-22.261V55.652z"/>
<rect x="222.609" y="211.478" style="fill:#FFCC75;" width="66.783" height="166.957"/>
<polygon style="fill:#274B6D;" points="89.043,422.957 89.043,512 256,512 278.261,422.957 "/>
<rect x="256" y="422.957" style="fill:#082947;" width="166.957" height="89.043"/>
<path style="fill:#FF9D49;" d="M111.304,356.174c-30.736,0-55.652,24.917-55.652,55.652v33.391H256l22.261-44.522L256,356.174
	H111.304z"/>
<path style="fill:#FF8430;" d="M456.348,411.826c0-30.736-24.917-55.652-55.652-55.652H256v89.043h200.348V411.826z"/>
<polygon style="fill:#FF9D49;" points="166.957,66.783 189.217,233.739 256,233.739 278.261,150.261 256,66.783 "/>
<polygon style="fill:#FF8430;" points="345.043,66.783 256,66.783 256,233.739 322.783,233.739 "/>
<g>
</g>
<g>
</g>
<g>
</g>
<g>
</g>
<g>
</g>
<g>
</g>
<g>
</g>
<g>
</g>
<g>
</g>
<g>
</g>
<g>
</g>
<g>
</g>
<g>
</g>
<g>
</g>
<g>
</g>
</svg>
