<?xml version="1.0" encoding="iso-8859-1"?>
<!-- Generator: Adobe Illustrator 17.1.0, SVG Export Plug-In . SVG Version: 6.00 Build 0)  -->
<!DOCTYPE svg PUBLIC "-//W3C//DTD SVG 1.1//EN" "http://www.w3.org/Graphics/SVG/1.1/DTD/svg11.dtd">
<svg version="1.1" id="Capa_1" xmlns="http://www.w3.org/2000/svg" xmlns:xlink="http://www.w3.org/1999/xlink" x="0px" y="0px"
	 viewBox="0 0 178.905 178.905" style="enable-background:new 0 0 178.905 178.905;" xml:space="preserve">
<path d="M160.389,178.905H18.516c-1.381,0-2.5-1.119-2.5-2.5v-7.645H10.6c-1.381,0-2.5-1.119-2.5-2.5v-25.628
	c0-1.381,1.119-2.5,2.5-2.5h1.592c0.221-2.584,1.083-6.524,4.044-9.813c3.353-3.725,8.422-5.613,15.067-5.613
	c16.925,0,43.776-11.664,43.776-42.964c0-16.663-9.949-36.425-10.05-36.623c-0.031-0.062-0.06-0.123-0.085-0.187
	c-2.599-4.396-3.971-9.385-3.971-14.454C60.973,12.775,73.749,0,89.452,0c15.704,0,28.479,12.775,28.479,28.479
	c0,5.072-1.373,10.063-3.974,14.459c-0.025,0.062-0.053,0.122-0.083,0.182c-0.101,0.197-10.05,19.986-10.05,36.623
	c0,31.3,26.852,42.964,43.776,42.964c6.645,0,11.714,1.889,15.066,5.613c2.961,3.288,3.823,7.228,4.044,9.813h1.593
	c1.381,0,2.5,1.119,2.5,2.5v25.628c0,1.381-1.119,2.5-2.5,2.5h-5.416v7.645C162.889,177.786,161.77,178.905,160.389,178.905z
	 M21.016,173.905h136.873v-3.81H21.016V173.905z M13.1,163.761h152.705v-20.628H13.1V163.761z M17.218,138.133h144.469
	c-0.21-1.817-0.862-4.408-2.767-6.503c-2.366-2.603-6.175-3.923-11.318-3.923c-10.921,0-22.71-4.146-31.534-11.089
	c-7.866-6.189-17.242-17.611-17.242-36.875c0-16.774,8.975-35.617,10.413-38.53c0.059-0.184,0.14-0.362,0.242-0.53
	c2.258-3.696,3.451-7.916,3.451-12.203C112.932,15.533,102.399,5,89.452,5C76.506,5,65.973,15.533,65.973,28.479
	c0,4.286,1.193,8.506,3.451,12.203c0.106,0.173,0.189,0.356,0.249,0.546c1.462,2.962,10.406,21.769,10.406,38.515
	c0,19.264-9.376,30.686-17.242,36.875c-8.824,6.943-20.613,11.089-31.534,11.089c-5.144,0-8.952,1.32-11.319,3.923
	C18.08,133.725,17.428,136.315,17.218,138.133z" fill="#FFFFFF"/>
<g>
</g>
<g>
</g>
<g>
</g>
<g>
</g>
<g>
</g>
<g>
</g>
<g>
</g>
<g>
</g>
<g>
</g>
<g>
</g>
<g>
</g>
<g>
</g>
<g>
</g>
<g>
</g>
<g>
</g>
</svg>
